<?xml version="1.0"?>
<svg width="640" height="480" xmlns="http://www.w3.org/2000/svg" xmlns:svg="http://www.w3.org/2000/svg">
 <!-- Created with SVG-edit - https://github.com/SVG-Edit/svgedit-->
 <g class="layer">
  <title>Layer 1</title>
  <rect fill="#00bf00" height="121" id="svg_1" stroke="#000000" stroke-width="5" width="249" x="307.5" y="112.5"/>
  <ellipse cx="421.5" cy="172" fill="#ff0000" id="svg_3" rx="44" ry="42.5" stroke="#000000" stroke-width="5"/>
  <line fill="none" id="svg_4" stroke="#000000" stroke-dasharray="null" stroke-linecap="null" stroke-linejoin="null" stroke-width="5" x1="306.5" x2="308.5" y1="114.5" y2="422.5"/>
  <rect fill="none" height="37" id="svg_5" stroke="#000000" stroke-dasharray="null" stroke-linecap="null" stroke-linejoin="null" stroke-width="5" width="66" x="273.5" y="425.5"/>
  <polygon fill="none" id="svg_46" points="292.5,444.5 292.5,444.5 292.5,444.5 292.5,444.5 292.5,444.5 292.5,444.5 292.5,444.5 292.5,444.5 292.5,444.5 292.5,444.5 292.5,444.5 292.5,444.5 " stroke="#7f0000" stroke-width="5"/>
  <polygon fill="none" id="svg_49" points="280.5,436.5 280.5,436.5 280.5,436.5 280.5,436.5 280.5,436.5 280.5,436.5 280.5,436.5 280.5,436.5 280.5,436.5 280.5,436.5 280.5,436.5 280.5,436.5 " stroke-width="5"/>
 </g>
</svg>